<svg width="128" height="128" viewBox="0 0 128 128" fill="none" xmlns="http://www.w3.org/2000/svg">
  <rect x="16" y="48" width="96" height="48" rx="16" fill="#232323" stroke="#ff0000" stroke-width="6"/>
  <circle cx="40" cy="72" r="12" fill="#fff" stroke="#ff0000" stroke-width="4"/>
  <rect x="60" y="66" width="40" height="12" rx="6" fill="#fff" />
  <rect x="80" y="60" width="8" height="24" rx="4" fill="#ff0000"/>
  <rect x="96" y="60" width="8" height="24" rx="4" fill="#ff0000"/>
  <rect x="72" y="60" width="8" height="24" rx="4" fill="#ff0000"/>
  <rect x="88" y="60" width="8" height="24" rx="4" fill="#ff0000"/>
  <rect x="104" y="60" width="8" height="24" rx="4" fill="#ff0000"/>
  <rect x="56" y="60" width="8" height="24" rx="4" fill="#ff0000"/>
  <rect x="64" y="60" width="8" height="24" rx="4" fill="#ff0000"/>
  <rect x="48" y="60" width="8" height="24" rx="4" fill="#ff0000"/>
  <rect x="32" y="60" width="8" height="24" rx="4" fill="#ff0000"/>
</svg>
